<svg xmlns="http://www.w3.org/2000/svg" version="1.1" viewBox="0 0 700 224" role="img" aria-label="exp transform (en)">
  <rect x="0" y="0" width="700" height="224" fill="#fbfaf7"/>
      <rect x="70" y="30" width="165" height="140" fill="#b07d31" fill-opacity=".08"/>
      <text x="152.7007862882738" y="24" text-anchor="middle" font-family="Public Sans" font-size="10.5" fill="#b07d31">range actually occupied by this figure</text>
      <line x1="70" y1="30" x2="70" y2="170" stroke="#46525f"/>
      <line x1="70" y1="170" x2="665" y2="170" stroke="#46525f"/>
      <line x1="70" y1="40" x2="660" y2="170" stroke="#46525f" stroke-width="1" stroke-dasharray="4,3" stroke-opacity=".55"/>
      <text x="565" y="150" text-anchor="end" font-family="Public Sans" font-size="10.5" fill="#46525f">q = 1 &#8722; CV</text>
      <polyline fill="none" stroke="#1b2430" stroke-width="2" points="70,40.0 100,46.3 129,52.4 158,58.1 188,63.6 218,68.8 247,73.7 276,78.4 306,82.9 336,87.1 365,91.2 394,95.0 424,98.7 454,102.1 483,105.4 512,108.6 542,111.6 572,114.4 601,117.1 630,119.7 660,122.2"/>
      <circle cx="133.3" cy="53.2" r="4" fill="#9e3b26"/>
      <text x="143.29137492711806" y="56.22360718803415" text-anchor="start" font-family="IBM Plex Mono, monospace" font-size="9.5" fill="#9e3b26">H5 · 0.898</text>
      <circle cx="163.0" cy="59.0" r="4" fill="#9e3b26"/>
      <text x="172.98268911120994" y="61.95487254938085" text-anchor="start" font-family="IBM Plex Mono, monospace" font-size="9.5" fill="#9e3b26">H4 · 0.854</text>
      <circle cx="168.1" cy="59.9" r="4" fill="#9e3b26"/>
      <text x="178.06137558093315" y="62.90664043683343" text-anchor="start" font-family="IBM Plex Mono, monospace" font-size="9.5" fill="#9e3b26">H3 · 0.847</text>
      <circle cx="216.6" cy="68.6" r="4" fill="#9e3b26"/>
      <text x="226.58898800848758" y="71.5994476301372" text-anchor="start" font-family="IBM Plex Mono, monospace" font-size="9.5" fill="#9e3b26">H2 · 0.780</text>
      <circle cx="235.4" cy="71.8" r="4" fill="#9e3b26"/>
      <text x="245.4015725765476" y="74.78167548045273" text-anchor="start" font-family="IBM Plex Mono, monospace" font-size="9.5" fill="#9e3b26">H1 · 0.756</text>
      <text x="62" y="44" text-anchor="end" font-family="IBM Plex Mono, monospace" font-size="10" fill="#46525f">1.0</text>
      <text x="62" y="174" text-anchor="end" font-family="IBM Plex Mono, monospace" font-size="10" fill="#46525f">0.0</text>
      <text x="365" y="192" text-anchor="middle" font-family="IBM Plex Mono, monospace" font-size="10" fill="#46525f">0.5</text>
      <text x="660" y="192" text-anchor="middle" font-family="IBM Plex Mono, monospace" font-size="10" fill="#46525f">1.0</text>
      <text x="365" y="212" text-anchor="middle" font-family="Public Sans" font-size="11" fill="#46525f">coefficient of variation  CV = s / x̄  →</text>
</svg>
